<svg width="35" height="35" viewBox="0 0 35 35" fill="none" xmlns="http://www.w3.org/2000/svg">
<path d="M4.375 10.2083C4.375 9.43474 4.68229 8.69288 5.22927 8.1459C5.77625 7.59892 6.51812 7.29163 7.29167 7.29163H27.7083C28.4819 7.29163 29.2237 7.59892 29.7707 8.1459C30.3177 8.69288 30.625 9.43474 30.625 10.2083V24.7916C30.625 25.5652 30.3177 26.307 29.7707 26.854C29.2237 27.401 28.4819 27.7083 27.7083 27.7083H7.29167C6.51812 27.7083 5.77625 27.401 5.22927 26.854C4.68229 26.307 4.375 25.5652 4.375 24.7916V10.2083Z" stroke="black" stroke-opacity="0.65" stroke-width="2" stroke-linecap="round" stroke-linejoin="round"/>
<path d="M4.375 10.2083L17.5 18.9583L30.625 10.2083" stroke="black" stroke-opacity="0.65" stroke-width="2" stroke-linecap="round" stroke-linejoin="round"/>
</svg>
