<svg width="18" height="17" viewBox="0 0 18 17" fill="none" xmlns="http://www.w3.org/2000/svg">
<path d="M17.9483 7.757C17.922 7.69775 17.2868 6.2885 15.8745 4.87625C13.9928 2.9945 11.616 2 9 2C6.384 2 4.00725 2.9945 2.12549 4.87625C0.713243 6.2885 0.0749929 7.7 0.0517429 7.757C0.0176277 7.83373 0 7.91677 0 8.00075C0 8.08473 0.0176277 8.16777 0.0517429 8.2445C0.0779929 8.30375 0.713243 9.71225 2.12549 11.1245C4.00725 13.0055 6.384 14 9 14C11.616 14 13.9928 13.0055 15.8745 11.1245C17.2868 9.71225 17.922 8.30375 17.9483 8.2445C17.9824 8.16777 18 8.08473 18 8.00075C18 7.91677 17.9824 7.83373 17.9483 7.757ZM9 12.8C6.6915 12.8 4.67475 11.9608 3.00524 10.3063C2.32023 9.62502 1.73743 8.84822 1.27499 8C1.73731 7.1517 2.32012 6.37488 3.00524 5.69375C4.67475 4.03925 6.6915 3.2 9 3.2C11.3085 3.2 13.3253 4.03925 14.9948 5.69375C15.6811 6.37472 16.2652 7.15154 16.7288 8C16.188 9.0095 13.8323 12.8 9 12.8ZM9 4.4C8.28799 4.4 7.59196 4.61114 6.99995 5.00671C6.40793 5.40228 5.94651 5.96453 5.67403 6.62234C5.40156 7.28015 5.33026 8.00399 5.46917 8.70233C5.60808 9.40066 5.95094 10.0421 6.45441 10.5456C6.95788 11.0491 7.59934 11.3919 8.29767 11.5308C8.99601 11.6697 9.71985 11.5984 10.3777 11.326C11.0355 11.0535 11.5977 10.5921 11.9933 10.0001C12.3889 9.40804 12.6 8.71201 12.6 8C12.599 7.04553 12.2194 6.13043 11.5445 5.45551C10.8696 4.7806 9.95448 4.40099 9 4.4ZM9 10.4C8.52532 10.4 8.06131 10.2592 7.66663 9.99553C7.27195 9.73181 6.96434 9.35698 6.78269 8.91844C6.60104 8.4799 6.55351 7.99734 6.64611 7.53178C6.73872 7.06623 6.9673 6.63859 7.30294 6.30294C7.63859 5.9673 8.06623 5.73872 8.53178 5.64612C8.99734 5.55351 9.4799 5.60104 9.91844 5.78269C10.357 5.96434 10.7318 6.27195 10.9955 6.66663C11.2592 7.06131 11.4 7.52533 11.4 8C11.4 8.63652 11.1471 9.24697 10.6971 9.69706C10.247 10.1471 9.63652 10.4 9 10.4Z" fill="black"/>
<line x1="16.9786" y1="0.706782" x2="0.706781" y2="16.0214" stroke="black" stroke-linecap="round"/>
</svg>
