<svg width="38" height="25" viewBox="0 0 38 25" fill="none" xmlns="http://www.w3.org/2000/svg">
<g opacity="0.5">
<path d="M37.8908 11.9938C37.8353 11.8703 36.4943 8.93437 33.5128 5.99219C29.5403 2.07187 24.5227 0 19 0C13.4773 0 8.45974 2.07187 4.48715 5.99219C1.50574 8.93437 0.158318 11.875 0.109235 11.9938C0.037214 12.1536 0 12.3266 0 12.5016C0 12.6765 0.037214 12.8495 0.109235 13.0094C0.164652 13.1328 1.50574 16.0672 4.48715 19.0094C8.45974 22.9281 13.4773 25 19 25C24.5227 25 29.5403 22.9281 33.5128 19.0094C36.4943 16.0672 37.8353 13.1328 37.8908 13.0094C37.9628 12.8495 38 12.6765 38 12.5016C38 12.3266 37.9628 12.1536 37.8908 11.9938ZM19 22.5C14.1265 22.5 9.86891 20.7516 6.34441 17.3047C4.89826 15.8855 3.66792 14.2671 2.69165 12.5C3.66765 10.7327 4.89802 9.11434 6.34441 7.69531C9.86891 4.24844 14.1265 2.5 19 2.5C23.8735 2.5 28.1311 4.24844 31.6556 7.69531C33.1046 9.114 34.3376 10.7324 35.3163 12.5C34.1747 14.6031 29.2014 22.5 19 22.5ZM19 5C17.4969 5 16.0275 5.43987 14.7777 6.26398C13.5278 7.08809 12.5537 8.25943 11.9785 9.62987C11.4033 11.0003 11.2528 12.5083 11.546 13.9632C11.8393 15.418 12.5631 16.7544 13.626 17.8033C14.6889 18.8522 16.0431 19.5665 17.5173 19.8559C18.9916 20.1453 20.5197 19.9968 21.9084 19.4291C23.2971 18.8614 24.4841 17.9001 25.3192 16.6668C26.1543 15.4334 26.6 13.9834 26.6 12.5C26.5979 10.5115 25.7965 8.60506 24.3717 7.19898C22.9469 5.79291 21.015 5.00207 19 5ZM19 17.5C17.9979 17.5 17.0183 17.2068 16.1851 16.6573C15.3519 16.1079 14.7025 15.327 14.319 14.4134C13.9355 13.4998 13.8352 12.4945 14.0307 11.5245C14.2262 10.5546 14.7087 9.66373 15.4173 8.96447C16.1259 8.2652 17.0287 7.789 18.0115 7.59607C18.9944 7.40315 20.0131 7.50216 20.9389 7.8806C21.8647 8.25904 22.656 8.8999 23.2128 9.72215C23.7695 10.5444 24.0667 11.5111 24.0667 12.5C24.0667 13.8261 23.5329 15.0979 22.5827 16.0355C21.6325 16.9732 20.3438 17.5 19 17.5Z" fill="black"/>
</g>
</svg>
