<svg width="28" height="27" viewBox="0 0 28 27" fill="none" xmlns="http://www.w3.org/2000/svg">
<path d="M27.0315 10.4012C26.918 10.0512 26.704 9.74244 26.4163 9.51322C26.1285 9.28401 25.7796 9.14452 25.4132 9.11212L18.4534 8.51212L15.7253 2.02462C15.5833 1.68421 15.3437 1.39343 15.0367 1.18891C14.7298 0.984379 14.3691 0.875244 14.0003 0.875244C13.6314 0.875244 13.2708 0.984379 12.9639 1.18891C12.6569 1.39343 12.4173 1.68421 12.2753 2.02462L9.55537 8.51212L2.5874 9.11446C2.21921 9.14516 1.86829 9.28395 1.57871 9.5134C1.28913 9.74286 1.07379 10.0528 0.959737 10.4042C0.845684 10.7556 0.837998 11.1329 0.937643 11.4887C1.03729 11.8444 1.23982 12.1629 1.51982 12.4039L6.80615 17.0234L5.22177 23.8836C5.138 24.2426 5.1619 24.6183 5.2905 24.9638C5.4191 25.3093 5.64669 25.6092 5.94481 25.826C6.24294 26.0429 6.59837 26.167 6.96666 26.183C7.33496 26.1989 7.69979 26.1059 8.01552 25.9156L13.9921 22.2828L19.9815 25.9156C20.2973 26.1059 20.6621 26.1989 21.0304 26.183C21.3987 26.167 21.7541 26.0429 22.0522 25.826C22.3504 25.6092 22.578 25.3093 22.7066 24.9638C22.8352 24.6183 22.8591 24.2426 22.7753 23.8836L21.1921 17.0164L26.4772 12.4039C26.7568 12.1619 26.9586 11.8427 27.0572 11.4864C27.1558 11.13 27.1469 10.7525 27.0315 10.4012ZM25.2479 10.9871L19.9628 15.5996C19.7056 15.8234 19.5142 16.113 19.4093 16.4374C19.3044 16.7618 19.29 17.1086 19.3675 17.4406L20.9554 24.3125L14.9706 20.6797C14.6786 20.5019 14.3433 20.4078 14.0015 20.4078V2.76056L16.7202 9.23868C16.8523 9.55351 17.0677 9.82632 17.3434 10.0277C17.6191 10.229 17.9446 10.3513 18.2847 10.3813L25.2503 10.9836V10.9918L25.2479 10.9871Z" fill="#FFCB00"/>
</svg>
