<svg width="22" height="22" viewBox="0 0 22 22" fill="none" xmlns="http://www.w3.org/2000/svg">
<g id="mi:edit">
<path id="Vector" d="M14.9352 2.10194C15.1072 1.9301 15.3403 1.83356 15.5833 1.83356C15.8264 1.83356 16.0595 1.9301 16.2314 2.10194L19.8981 5.76861C20.0699 5.94051 20.1665 6.17363 20.1665 6.41669C20.1665 6.65976 20.0699 6.89288 19.8981 7.06478L7.98142 18.9814C7.80955 19.1534 7.57643 19.25 7.33333 19.25H3.66667C3.42355 19.25 3.19039 19.1535 3.01849 18.9815C2.84658 18.8096 2.75 18.5765 2.75 18.3334V14.6667C2.75005 14.4236 2.84666 14.1905 3.01858 14.0186L12.1853 4.85194L14.9352 2.10194ZM12.8333 6.79619L4.58333 15.0462V17.4167H6.95383L15.2038 9.16669L12.8333 6.79619ZM16.5 7.87053L17.9538 6.41669L15.5833 4.04619L14.1295 5.50003L16.5 7.87053Z" fill="white"/>
</g>
</svg>
