<svg width="703" height="85" viewBox="0 0 703 85" fill="none" xmlns="http://www.w3.org/2000/svg">
<path d="M20.584 63.558C19.2613 63.558 18.1867 63.248 17.36 62.628C16.5333 61.9667 15.872 60.9747 15.376 59.652L2.852 24.436C2.31467 22.8653 2.418 21.522 3.162 20.406C3.94733 19.29 5.29067 18.732 7.192 18.732C8.51467 18.732 9.52733 19.042 10.23 19.662C10.974 20.282 11.5733 21.2533 12.028 22.576L22.258 53.018H19.592L30.38 22.638C30.876 21.3153 31.4753 20.344 32.178 19.724C32.922 19.0627 33.8933 18.732 35.092 18.732C36.2493 18.732 37.1793 19.0627 37.882 19.724C38.5847 20.344 39.184 21.336 39.68 22.7L49.972 53.018H47.678L58.094 22.576C58.5073 21.2947 59.086 20.344 59.83 19.724C60.574 19.0627 61.5867 18.732 62.868 18.732C64.48 18.732 65.658 19.29 66.402 20.406C67.146 21.522 67.2287 22.8653 66.65 24.436L54.002 59.714C53.5473 60.9953 52.9273 61.9667 52.142 62.628C51.3567 63.248 50.282 63.558 48.918 63.558C47.5953 63.558 46.5413 63.248 45.756 62.628C44.9707 61.9667 44.33 60.9747 43.834 59.652L34.038 31.938H35.526L25.606 59.714C25.11 60.9953 24.4693 61.9667 23.684 62.628C22.94 63.248 21.9067 63.558 20.584 63.558ZM84.8572 63.682C81.2612 63.682 78.1612 63.0413 75.5572 61.76C72.9945 60.4373 71.0105 58.598 69.6052 56.242C68.2412 53.8447 67.5592 51.034 67.5592 47.81C67.5592 44.6687 68.2205 41.92 69.5432 39.564C70.8658 37.1667 72.7052 35.3067 75.0612 33.984C77.4585 32.62 80.1658 31.938 83.1832 31.938C85.3738 31.938 87.3578 32.31 89.1352 33.054C90.9125 33.7567 92.4418 34.79 93.7232 36.154C95.0045 37.4767 95.9758 39.1093 96.6372 41.052C97.2985 42.9533 97.6292 45.082 97.6292 47.438C97.6292 48.2233 97.3812 48.8227 96.8852 49.236C96.3892 49.608 95.6658 49.794 94.7152 49.794H75.2472V44.958H90.8712L89.8792 45.826C89.8792 44.1313 89.6312 42.726 89.1352 41.61C88.6392 40.4527 87.9158 39.5847 86.9652 39.006C86.0558 38.4273 84.9192 38.138 83.5552 38.138C82.0258 38.138 80.7238 38.4893 79.6492 39.192C78.5745 39.8947 77.7478 40.9073 77.1692 42.23C76.5905 43.5527 76.3012 45.144 76.3012 47.004V47.5C76.3012 50.6413 77.0245 52.956 78.4712 54.444C79.9592 55.932 82.1498 56.676 85.0432 56.676C86.0352 56.676 87.1718 56.552 88.4532 56.304C89.7345 56.056 90.9332 55.6633 92.0492 55.126C92.9998 54.6713 93.8472 54.5267 94.5912 54.692C95.3352 54.816 95.9138 55.1467 96.3272 55.684C96.7405 56.2213 96.9678 56.8413 97.0092 57.544C97.0918 58.2467 96.9472 58.9493 96.5752 59.652C96.2032 60.3133 95.5832 60.8713 94.7152 61.326C93.3098 62.1113 91.7185 62.69 89.9412 63.062C88.2052 63.4753 86.5105 63.682 84.8572 63.682ZM114.049 63.682C110.37 63.682 107.621 62.6693 105.803 60.644C103.984 58.5773 103.075 55.5187 103.075 51.468V23.506C103.075 21.9353 103.467 20.7573 104.253 19.972C105.079 19.1453 106.257 18.732 107.787 18.732C109.275 18.732 110.411 19.1453 111.197 19.972C112.023 20.7573 112.437 21.9353 112.437 23.506V51.096C112.437 52.7907 112.788 54.0513 113.491 54.878C114.235 55.6633 115.206 56.056 116.405 56.056C116.735 56.056 117.045 56.0353 117.335 55.994C117.624 55.9527 117.934 55.932 118.265 55.932C118.926 55.8493 119.381 56.056 119.629 56.552C119.918 57.0067 120.063 57.9367 120.063 59.342C120.063 60.582 119.815 61.5327 119.319 62.194C118.823 62.814 118.058 63.2273 117.025 63.434C116.611 63.4753 116.136 63.5167 115.599 63.558C115.061 63.6407 114.545 63.682 114.049 63.682ZM138.236 63.682C134.93 63.682 132.036 63.0413 129.556 61.76C127.118 60.4373 125.237 58.5773 123.914 56.18C122.592 53.7827 121.93 50.9513 121.93 47.686C121.93 45.2473 122.302 43.0567 123.046 41.114C123.79 39.1713 124.865 37.518 126.27 36.154C127.717 34.79 129.453 33.7567 131.478 33.054C133.504 32.31 135.756 31.938 138.236 31.938C139.518 31.938 140.882 32.1033 142.328 32.434C143.775 32.7233 145.201 33.24 146.606 33.984C147.433 34.356 147.991 34.8933 148.28 35.596C148.611 36.2573 148.735 36.96 148.652 37.704C148.57 38.4067 148.301 39.0473 147.846 39.626C147.433 40.1633 146.896 40.5353 146.234 40.742C145.573 40.9073 144.829 40.7833 144.002 40.37C143.217 39.9153 142.39 39.5847 141.522 39.378C140.696 39.1713 139.91 39.068 139.166 39.068C137.926 39.068 136.831 39.2747 135.88 39.688C134.93 40.06 134.124 40.618 133.462 41.362C132.842 42.0647 132.346 42.9533 131.974 44.028C131.644 45.1027 131.478 46.3427 131.478 47.748C131.478 50.476 132.14 52.6253 133.462 54.196C134.826 55.7253 136.728 56.49 139.166 56.49C139.91 56.49 140.696 56.4073 141.522 56.242C142.349 56.0353 143.176 55.7047 144.002 55.25C144.829 54.8367 145.573 54.7333 146.234 54.94C146.896 55.1467 147.412 55.5393 147.784 56.118C148.198 56.6553 148.425 57.296 148.466 58.04C148.549 58.7427 148.425 59.4453 148.094 60.148C147.805 60.8093 147.268 61.326 146.482 61.698C145.077 62.4007 143.672 62.8967 142.266 63.186C140.861 63.5167 139.518 63.682 138.236 63.682ZM167.052 63.682C163.787 63.682 160.935 63.0413 158.496 61.76C156.099 60.4787 154.239 58.6393 152.916 56.242C151.594 53.8447 150.932 51.0133 150.932 47.748C150.932 45.3093 151.304 43.1187 152.048 41.176C152.792 39.2333 153.867 37.58 155.272 36.216C156.719 34.8107 158.434 33.7567 160.418 33.054C162.402 32.31 164.614 31.938 167.052 31.938C170.318 31.938 173.149 32.5787 175.546 33.86C177.985 35.1413 179.866 36.96 181.188 39.316C182.552 41.672 183.234 44.4827 183.234 47.748C183.234 50.228 182.842 52.4393 182.056 54.382C181.312 56.3247 180.238 57.9987 178.832 59.404C177.427 60.8093 175.712 61.884 173.686 62.628C171.702 63.3307 169.491 63.682 167.052 63.682ZM167.052 56.676C168.416 56.676 169.594 56.3453 170.586 55.684C171.578 55.0227 172.364 54.0513 172.942 52.77C173.521 51.4473 173.81 49.7733 173.81 47.748C173.81 44.7307 173.19 42.5193 171.95 41.114C170.71 39.6673 169.078 38.944 167.052 38.944C165.73 38.944 164.552 39.254 163.518 39.874C162.526 40.494 161.741 41.4653 161.162 42.788C160.625 44.0693 160.356 45.7227 160.356 47.748C160.356 50.7653 160.976 53.018 162.216 54.506C163.456 55.9527 165.068 56.676 167.052 56.676ZM193.766 63.558C192.237 63.558 191.059 63.1447 190.232 62.318C189.447 61.4913 189.054 60.3133 189.054 58.784V36.774C189.054 35.2447 189.447 34.0873 190.232 33.302C191.059 32.4753 192.195 32.062 193.642 32.062C195.13 32.062 196.267 32.4753 197.052 33.302C197.837 34.0873 198.23 35.2447 198.23 36.774V40.742L197.548 38.262C198.375 36.3607 199.656 34.8313 201.392 33.674C203.128 32.5167 205.174 31.938 207.53 31.938C209.886 31.938 211.849 32.496 213.42 33.612C214.991 34.728 216.107 36.4433 216.768 38.758H215.9C216.809 36.65 218.194 34.9967 220.054 33.798C221.955 32.558 224.125 31.938 226.564 31.938C228.92 31.938 230.842 32.4133 232.33 33.364C233.859 34.2733 234.996 35.6787 235.74 37.58C236.484 39.44 236.856 41.8167 236.856 44.71V58.784C236.856 60.3133 236.443 61.4913 235.616 62.318C234.831 63.1447 233.694 63.558 232.206 63.558C230.677 63.558 229.499 63.1447 228.672 62.318C227.887 61.4913 227.494 60.3133 227.494 58.784V45.02C227.494 42.9947 227.163 41.5273 226.502 40.618C225.882 39.6673 224.807 39.192 223.278 39.192C221.501 39.192 220.116 39.812 219.124 41.052C218.132 42.292 217.636 44.0487 217.636 46.322V58.784C217.636 60.3133 217.223 61.4913 216.396 62.318C215.611 63.1447 214.474 63.558 212.986 63.558C211.498 63.558 210.341 63.1447 209.514 62.318C208.687 61.4913 208.274 60.3133 208.274 58.784V45.02C208.274 42.9947 207.943 41.5273 207.282 40.618C206.662 39.6673 205.587 39.192 204.058 39.192C202.281 39.192 200.896 39.812 199.904 41.052C198.912 42.292 198.416 44.0487 198.416 46.322V58.784C198.416 61.9667 196.866 63.558 193.766 63.558ZM259.838 63.682C256.242 63.682 253.142 63.0413 250.538 61.76C247.975 60.4373 245.991 58.598 244.586 56.242C243.222 53.8447 242.54 51.034 242.54 47.81C242.54 44.6687 243.201 41.92 244.524 39.564C245.846 37.1667 247.686 35.3067 250.042 33.984C252.439 32.62 255.146 31.938 258.164 31.938C260.354 31.938 262.338 32.31 264.116 33.054C265.893 33.7567 267.422 34.79 268.704 36.154C269.985 37.4767 270.956 39.1093 271.618 41.052C272.279 42.9533 272.61 45.082 272.61 47.438C272.61 48.2233 272.362 48.8227 271.866 49.236C271.37 49.608 270.646 49.794 269.696 49.794H250.228V44.958H265.852L264.86 45.826C264.86 44.1313 264.612 42.726 264.116 41.61C263.62 40.4527 262.896 39.5847 261.946 39.006C261.036 38.4273 259.9 38.138 258.536 38.138C257.006 38.138 255.704 38.4893 254.63 39.192C253.555 39.8947 252.728 40.9073 252.15 42.23C251.571 43.5527 251.282 45.144 251.282 47.004V47.5C251.282 50.6413 252.005 52.956 253.452 54.444C254.94 55.932 257.13 56.676 260.024 56.676C261.016 56.676 262.152 56.552 263.434 56.304C264.715 56.056 265.914 55.6633 267.03 55.126C267.98 54.6713 268.828 54.5267 269.572 54.692C270.316 54.816 270.894 55.1467 271.308 55.684C271.721 56.2213 271.948 56.8413 271.99 57.544C272.072 58.2467 271.928 58.9493 271.556 59.652C271.184 60.3133 270.564 60.8713 269.696 61.326C268.29 62.1113 266.699 62.69 264.922 63.062C263.186 63.4753 261.491 63.682 259.838 63.682ZM311.429 63.558C309.859 63.558 308.66 63.124 307.833 62.256C307.007 61.388 306.593 60.1687 306.593 58.598V27.226H295.619C294.338 27.226 293.346 26.8747 292.643 26.172C291.941 25.4693 291.589 24.498 291.589 23.258C291.589 21.9767 291.941 21.0053 292.643 20.344C293.346 19.6413 294.338 19.29 295.619 19.29H327.177C328.459 19.29 329.451 19.6413 330.153 20.344C330.856 21.0053 331.207 21.9767 331.207 23.258C331.207 24.498 330.856 25.4693 330.153 26.172C329.451 26.8747 328.459 27.226 327.177 27.226H316.203V58.598C316.203 60.1687 315.79 61.388 314.963 62.256C314.178 63.124 313 63.558 311.429 63.558ZM344.273 63.682C341.008 63.682 338.156 63.0413 335.717 61.76C333.32 60.4787 331.46 58.6393 330.137 56.242C328.814 53.8447 328.153 51.0133 328.153 47.748C328.153 45.3093 328.525 43.1187 329.269 41.176C330.013 39.2333 331.088 37.58 332.493 36.216C333.94 34.8107 335.655 33.7567 337.639 33.054C339.623 32.31 341.834 31.938 344.273 31.938C347.538 31.938 350.37 32.5787 352.767 33.86C355.206 35.1413 357.086 36.96 358.409 39.316C359.773 41.672 360.455 44.4827 360.455 47.748C360.455 50.228 360.062 52.4393 359.277 54.382C358.533 56.3247 357.458 57.9987 356.053 59.404C354.648 60.8093 352.932 61.884 350.907 62.628C348.923 63.3307 346.712 63.682 344.273 63.682ZM344.273 56.676C345.637 56.676 346.815 56.3453 347.807 55.684C348.799 55.0227 349.584 54.0513 350.163 52.77C350.742 51.4473 351.031 49.7733 351.031 47.748C351.031 44.7307 350.411 42.5193 349.171 41.114C347.931 39.6673 346.298 38.944 344.273 38.944C342.95 38.944 341.772 39.254 340.739 39.874C339.747 40.494 338.962 41.4653 338.383 42.788C337.846 44.0693 337.577 45.7227 337.577 47.748C337.577 50.7653 338.197 53.018 339.437 54.506C340.677 55.9527 342.289 56.676 344.273 56.676ZM389.171 63C387.6 63 386.381 62.566 385.513 61.698C384.686 60.83 384.273 59.6313 384.273 58.102V24.064C384.273 22.452 384.686 21.2327 385.513 20.406C386.34 19.5793 387.538 19.166 389.109 19.166C390.638 19.166 391.816 19.5793 392.643 20.406C393.47 21.2327 393.883 22.452 393.883 24.064V54.878H410.499C411.822 54.878 412.834 55.2293 413.537 55.932C414.281 56.6347 414.653 57.6267 414.653 58.908C414.653 60.2307 414.281 61.2433 413.537 61.946C412.834 62.6487 411.822 63 410.499 63H389.171ZM429.3 63.682C427.068 63.682 425.063 63.248 423.286 62.38C421.509 61.512 420.124 60.334 419.132 58.846C418.14 57.358 417.644 55.684 417.644 53.824C417.644 51.592 418.223 49.8353 419.38 48.554C420.537 47.2313 422.418 46.3013 425.022 45.764C427.626 45.1853 431.077 44.896 435.376 44.896H438.662V49.732H435.438C433.33 49.732 431.615 49.856 430.292 50.104C429.011 50.3107 428.081 50.6827 427.502 51.22C426.965 51.7573 426.696 52.5013 426.696 53.452C426.696 54.6093 427.089 55.56 427.874 56.304C428.701 57.048 429.879 57.42 431.408 57.42C432.607 57.42 433.661 57.1513 434.57 56.614C435.521 56.0353 436.265 55.2707 436.802 54.32C437.339 53.328 437.608 52.212 437.608 50.972V43.842C437.608 42.0233 437.195 40.742 436.368 39.998C435.541 39.2127 434.136 38.82 432.152 38.82C431.036 38.82 429.817 38.9647 428.494 39.254C427.213 39.502 425.787 39.936 424.216 40.556C423.307 40.9693 422.501 41.0727 421.798 40.866C421.095 40.618 420.558 40.2047 420.186 39.626C419.814 39.006 419.628 38.3447 419.628 37.642C419.628 36.898 419.835 36.1953 420.248 35.534C420.661 34.8313 421.343 34.3147 422.294 33.984C424.237 33.1987 426.055 32.6613 427.75 32.372C429.486 32.0827 431.077 31.938 432.524 31.938C435.707 31.938 438.311 32.4133 440.336 33.364C442.403 34.2733 443.953 35.6993 444.986 37.642C446.019 39.5433 446.536 42.0027 446.536 45.02V58.784C446.536 60.3133 446.164 61.4913 445.42 62.318C444.676 63.1447 443.601 63.558 442.196 63.558C440.791 63.558 439.695 63.1447 438.91 62.318C438.166 61.4913 437.794 60.3133 437.794 58.784V56.49L438.228 56.862C437.98 58.2673 437.443 59.4867 436.616 60.52C435.831 61.512 434.818 62.2973 433.578 62.876C432.338 63.4133 430.912 63.682 429.3 63.682ZM458.232 63.558C456.702 63.558 455.524 63.1447 454.698 62.318C453.912 61.4913 453.52 60.3133 453.52 58.784V36.774C453.52 35.2447 453.912 34.0873 454.698 33.302C455.524 32.4753 456.661 32.062 458.108 32.062C459.596 32.062 460.732 32.4753 461.518 33.302C462.303 34.0873 462.696 35.2447 462.696 36.774V40.308L462.014 38.262C462.964 36.2367 464.37 34.6867 466.23 33.612C468.131 32.496 470.28 31.938 472.678 31.938C475.116 31.938 477.121 32.4133 478.692 33.364C480.262 34.2733 481.44 35.6787 482.226 37.58C483.011 39.44 483.404 41.8167 483.404 44.71V58.784C483.404 60.3133 482.99 61.4913 482.164 62.318C481.378 63.1447 480.221 63.558 478.692 63.558C477.204 63.558 476.046 63.1447 475.22 62.318C474.434 61.4913 474.042 60.3133 474.042 58.784V45.144C474.042 43.036 473.649 41.5273 472.864 40.618C472.12 39.6673 470.962 39.192 469.392 39.192C467.408 39.192 465.816 39.812 464.618 41.052C463.46 42.292 462.882 43.9453 462.882 46.012V58.784C462.882 61.9667 461.332 63.558 458.232 63.558ZM505.025 74.842C502.793 74.842 500.644 74.656 498.577 74.284C496.552 73.912 494.754 73.354 493.183 72.61C492.232 72.1967 491.55 71.6593 491.137 70.998C490.765 70.3367 490.6 69.634 490.641 68.89C490.724 68.146 490.972 67.4847 491.385 66.906C491.84 66.3273 492.398 65.914 493.059 65.666C493.72 65.4593 494.423 65.5213 495.167 65.852C496.986 66.6787 498.66 67.216 500.189 67.464C501.76 67.712 503.103 67.836 504.219 67.836C506.864 67.836 508.848 67.2367 510.171 66.038C511.494 64.8393 512.155 63 512.155 60.52V55.808H512.713C512.093 57.7093 510.812 59.2593 508.869 60.458C506.926 61.6567 504.777 62.256 502.421 62.256C499.693 62.256 497.316 61.636 495.291 60.396C493.266 59.1147 491.695 57.3373 490.579 55.064C489.463 52.7493 488.905 50.0833 488.905 47.066C488.905 44.7927 489.215 42.726 489.835 40.866C490.496 39.006 491.406 37.4147 492.563 36.092C493.762 34.7693 495.188 33.7567 496.841 33.054C498.536 32.31 500.396 31.938 502.421 31.938C504.86 31.938 507.009 32.5373 508.869 33.736C510.77 34.8933 512.031 36.4227 512.651 38.324L512.031 40.308V36.774C512.031 35.2447 512.424 34.0873 513.209 33.302C514.036 32.4753 515.193 32.062 516.681 32.062C518.169 32.062 519.306 32.4753 520.091 33.302C520.876 34.0873 521.269 35.2447 521.269 36.774V59.466C521.269 64.55 519.864 68.3733 517.053 70.936C514.284 73.54 510.274 74.842 505.025 74.842ZM505.211 55.25C506.616 55.25 507.815 54.9193 508.807 54.258C509.84 53.5967 510.646 52.6667 511.225 51.468C511.804 50.228 512.093 48.7607 512.093 47.066C512.093 44.5033 511.452 42.5193 510.171 41.114C508.931 39.6673 507.278 38.944 505.211 38.944C503.806 38.944 502.586 39.2747 501.553 39.936C500.52 40.556 499.714 41.486 499.135 42.726C498.598 43.9247 498.329 45.3713 498.329 47.066C498.329 49.6287 498.949 51.6333 500.189 53.08C501.429 54.5267 503.103 55.25 505.211 55.25ZM541.061 63.558C539.821 63.558 538.767 63.2687 537.899 62.69C537.031 62.07 536.329 61.0987 535.791 59.776L527.049 38.138C526.595 36.9807 526.45 35.968 526.615 35.1C526.781 34.1907 527.215 33.4673 527.917 32.93C528.661 32.3513 529.674 32.062 530.955 32.062C532.03 32.062 532.919 32.3307 533.621 32.868C534.324 33.364 534.923 34.3353 535.419 35.782L542.239 53.948H540.813L547.881 34.976C548.212 33.984 548.687 33.2607 549.307 32.806C549.969 32.31 550.816 32.062 551.849 32.062C552.883 32.062 553.709 32.31 554.329 32.806C554.991 33.302 555.507 34.0253 555.879 34.976L562.823 53.948H561.645L568.403 35.534C568.899 34.2113 569.54 33.302 570.325 32.806C571.111 32.31 571.958 32.062 572.867 32.062C574.025 32.062 574.913 32.3513 575.533 32.93C576.195 33.5087 576.567 34.2527 576.649 35.162C576.773 36.0713 576.608 37.0633 576.153 38.138L567.473 59.776C566.977 61.0573 566.275 62.008 565.365 62.628C564.497 63.248 563.443 63.558 562.203 63.558C561.005 63.558 559.951 63.248 559.041 62.628C558.173 62.008 557.471 61.0573 556.933 59.776L549.493 40.432H553.523L546.269 59.714C545.773 60.9953 545.091 61.9667 544.223 62.628C543.355 63.248 542.301 63.558 541.061 63.558ZM586.652 63.496C585.122 63.496 583.944 63.062 583.118 62.194C582.332 61.2847 581.94 60.024 581.94 58.412V37.208C581.94 35.5547 582.332 34.294 583.118 33.426C583.944 32.5167 585.122 32.062 586.652 32.062C588.14 32.062 589.276 32.5167 590.062 33.426C590.888 34.294 591.302 35.5547 591.302 37.208V58.412C591.302 60.024 590.909 61.2847 590.124 62.194C589.338 63.062 588.181 63.496 586.652 63.496ZM586.652 26.978C584.916 26.978 583.572 26.5853 582.622 25.8C581.712 24.9733 581.258 23.816 581.258 22.328C581.258 20.7987 581.712 19.6413 582.622 18.856C583.572 18.0293 584.916 17.616 586.652 17.616C588.388 17.616 589.71 18.0293 590.62 18.856C591.529 19.6413 591.984 20.7987 591.984 22.328C591.984 23.816 591.529 24.9733 590.62 25.8C589.71 26.5853 588.388 26.978 586.652 26.978ZM613.472 63.682C610.62 63.682 608.222 63.2067 606.28 62.256C604.378 61.3053 602.952 59.9207 602.002 58.102C601.092 56.2833 600.638 53.9893 600.638 51.22V39.564H598.034C596.876 39.564 595.967 39.254 595.306 38.634C594.686 38.014 594.376 37.1667 594.376 36.092C594.376 34.9347 594.686 34.0667 595.306 33.488C595.967 32.868 596.876 32.558 598.034 32.558H600.638V27.846C600.638 26.2753 601.051 25.0973 601.878 24.312C602.704 23.4853 603.862 23.072 605.35 23.072C606.879 23.072 608.036 23.4853 608.822 24.312C609.607 25.0973 610 26.2753 610 27.846V32.558H615.89C617.047 32.558 617.936 32.868 618.556 33.488C619.176 34.0667 619.486 34.9347 619.486 36.092C619.486 37.1667 619.176 38.014 618.556 38.634C617.936 39.254 617.047 39.564 615.89 39.564H610V50.848C610 52.584 610.392 53.886 611.178 54.754C612.004 55.622 613.306 56.056 615.084 56.056C615.704 56.056 616.282 55.994 616.82 55.87C617.357 55.746 617.853 55.6633 618.308 55.622C618.886 55.5807 619.362 55.7667 619.734 56.18C620.106 56.552 620.292 57.3993 620.292 58.722C620.292 59.714 620.126 60.582 619.796 61.326C619.465 62.07 618.886 62.6073 618.06 62.938C617.522 63.1447 616.778 63.31 615.828 63.434C614.918 63.5993 614.133 63.682 613.472 63.682ZM638.111 63.682C634.805 63.682 631.911 63.0413 629.431 61.76C626.993 60.4373 625.112 58.5773 623.789 56.18C622.467 53.7827 621.805 50.9513 621.805 47.686C621.805 45.2473 622.177 43.0567 622.921 41.114C623.665 39.1713 624.74 37.518 626.145 36.154C627.592 34.79 629.328 33.7567 631.353 33.054C633.379 32.31 635.631 31.938 638.111 31.938C639.393 31.938 640.757 32.1033 642.203 32.434C643.65 32.7233 645.076 33.24 646.481 33.984C647.308 34.356 647.866 34.8933 648.155 35.596C648.486 36.2573 648.61 36.96 648.527 37.704C648.445 38.4067 648.176 39.0473 647.721 39.626C647.308 40.1633 646.771 40.5353 646.109 40.742C645.448 40.9073 644.704 40.7833 643.877 40.37C643.092 39.9153 642.265 39.5847 641.397 39.378C640.571 39.1713 639.785 39.068 639.041 39.068C637.801 39.068 636.706 39.2747 635.755 39.688C634.805 40.06 633.999 40.618 633.337 41.362C632.717 42.0647 632.221 42.9533 631.849 44.028C631.519 45.1027 631.353 46.3427 631.353 47.748C631.353 50.476 632.015 52.6253 633.337 54.196C634.701 55.7253 636.603 56.49 639.041 56.49C639.785 56.49 640.571 56.4073 641.397 56.242C642.224 56.0353 643.051 55.7047 643.877 55.25C644.704 54.8367 645.448 54.7333 646.109 54.94C646.771 55.1467 647.287 55.5393 647.659 56.118C648.073 56.6553 648.3 57.296 648.341 58.04C648.424 58.7427 648.3 59.4453 647.969 60.148C647.68 60.8093 647.143 61.326 646.357 61.698C644.952 62.4007 643.547 62.8967 642.141 63.186C640.736 63.5167 639.393 63.682 638.111 63.682ZM657.613 63.558C656.083 63.558 654.905 63.1447 654.079 62.318C653.293 61.4913 652.901 60.3133 652.901 58.784V23.506C652.901 21.9353 653.293 20.7573 654.079 19.972C654.905 19.1453 656.083 18.732 657.613 18.732C659.101 18.732 660.237 19.1453 661.023 19.972C661.849 20.7573 662.263 21.9353 662.263 23.506V38.262H661.395C662.345 36.2367 663.751 34.6867 665.611 33.612C667.512 32.496 669.661 31.938 672.059 31.938C674.497 31.938 676.502 32.4133 678.073 33.364C679.643 34.2733 680.821 35.6787 681.607 37.58C682.392 39.44 682.785 41.8167 682.785 44.71V58.784C682.785 60.3133 682.371 61.4913 681.545 62.318C680.759 63.1447 679.602 63.558 678.073 63.558C676.585 63.558 675.427 63.1447 674.601 62.318C673.815 61.4913 673.423 60.3133 673.423 58.784V45.144C673.423 43.036 673.03 41.5273 672.245 40.618C671.501 39.6673 670.343 39.192 668.773 39.192C666.789 39.192 665.197 39.812 663.999 41.052C662.841 42.292 662.263 43.9453 662.263 46.012V58.784C662.263 61.9667 660.713 63.558 657.613 63.558ZM694.3 49.546C693.349 49.546 692.605 49.2567 692.068 48.678C691.53 48.0993 691.2 47.252 691.076 46.136L689.092 24.932C688.885 23.072 689.236 21.584 690.146 20.468C691.055 19.3107 692.44 18.732 694.3 18.732C696.077 18.732 697.42 19.3107 698.33 20.468C699.239 21.584 699.59 23.072 699.384 24.932L697.4 46.136C697.276 47.252 696.945 48.0993 696.408 48.678C695.912 49.2567 695.209 49.546 694.3 49.546ZM694.3 63.31C692.646 63.31 691.324 62.814 690.332 61.822C689.381 60.83 688.906 59.5487 688.906 57.978C688.906 56.4487 689.381 55.2087 690.332 54.258C691.324 53.266 692.646 52.77 694.3 52.77C695.953 52.77 697.234 53.266 698.144 54.258C699.094 55.2087 699.57 56.4487 699.57 57.978C699.57 59.5487 699.094 60.83 698.144 61.822C697.234 62.814 695.953 63.31 694.3 63.31Z" fill="#060934"/>
<path d="M525.062 36.7506C523.679 41.7651 515.718 43.9446 507.279 41.6186C498.841 39.2926 493.121 33.3419 494.503 28.3274C495.885 23.3129 503.846 21.1334 512.285 23.4594C520.723 25.7854 526.444 31.7361 525.062 36.7506Z" fill="#7A65B2"/>
<path fill-rule="evenodd" clip-rule="evenodd" d="M510.98 23.4217C513.742 24.0443 516.391 25.1135 518.635 26.5132C520.878 27.9121 522.637 29.5924 523.707 31.3753C524.23 32.2472 524.616 32.9451 524.832 33.7306C525.049 34.5202 525.091 35.3815 524.959 36.5821C524.945 36.7118 524.828 36.8054 524.698 36.7912C524.569 36.7769 524.475 36.6602 524.489 36.5304C524.617 35.3657 524.572 34.5688 524.376 33.8559C524.179 33.1387 523.824 32.4896 523.302 31.6185C522.28 29.9154 520.582 28.2846 518.385 26.9142C516.189 25.5446 513.59 24.4946 510.876 23.8828C508.162 23.271 506.237 23.0595 503.821 23.3879C501.403 23.7165 499.395 24.5072 498.005 25.6556C496.619 26.8 495.901 28.2547 495.904 29.862C495.908 31.4762 496.411 33.248 497.827 34.9085C498.937 36.2105 500.514 38.0786 503.662 38.9466C503.788 38.9812 503.857 39.1283 503.823 39.2541C503.788 39.38 503.658 39.4539 503.532 39.4192C500.276 38.5217 498.37 36.9595 496.906 35.2411C495.441 33.5227 494.645 31.684 494.641 29.9265C494.637 28.1621 495.431 26.5785 496.913 25.3546C498.389 24.1346 500.489 23.3196 502.966 22.9829C505.445 22.646 508.218 22.7992 510.98 23.4217Z" fill="#FBF9FF"/>
<path fill-rule="evenodd" clip-rule="evenodd" d="M518.654 41.344C521.763 40.4929 523.858 38.8014 524.469 36.5871C525.079 34.3728 524.146 31.8468 521.913 29.5231C519.689 27.2105 516.253 25.1912 512.121 24.0524C507.99 22.9137 504.004 22.887 500.91 23.734C497.801 24.5851 495.706 26.2766 495.096 28.4908C494.485 30.7051 495.418 33.2312 497.652 35.5549C499.875 37.8675 503.312 39.8868 507.443 41.0255C511.574 42.1643 515.56 42.191 518.654 41.344ZM507.279 41.6186C515.718 43.9446 523.679 41.7651 525.062 36.7506C526.444 31.7361 520.723 25.7854 512.285 23.4594C503.846 21.1334 495.885 23.3129 494.503 28.3274C493.121 33.3419 498.841 39.2926 507.279 41.6186Z" fill="#060934"/>
<path d="M520.466 14.1965C516.308 9.19326 505.286 22.3337 500.296 29.5293C502.736 33.5087 505.595 35.5681 508.399 36.4513C512.807 37.8396 517.078 36.3211 519.364 34.7854C518.045 30.9604 518.557 23.0658 518.978 19.5966C521.338 18.566 522.436 21.2503 522.69 22.7214C519.141 24.8338 522.936 28.1051 524.845 25.6643C526.754 23.2234 525.664 20.4506 520.466 14.1965Z" fill="#7A65B2"/>
<mask id="mask0_273_28" style="mask-type:alpha" maskUnits="userSpaceOnUse" x="500" y="13" width="26" height="24">
<path d="M520.49 14.2025C516.336 9.20459 505.325 22.3299 500.339 29.5173C502.777 33.4925 505.634 35.5498 508.436 36.4321C512.84 37.8191 517.106 36.3025 519.391 34.7686C518.073 30.9477 518.584 23.0619 519.004 19.5966C521.362 18.5672 522.459 21.2487 522.712 22.7181C519.167 24.828 522.959 28.0959 524.866 25.6579C526.772 23.2198 525.684 20.4499 520.49 14.2025Z" fill="#9167E3"/>
</mask>
<g mask="url(#mask0_273_28)">
<path d="M520.412 35.834L512.321 38.2602C512.387 36.8144 512.599 35.0779 512.918 33.2324C513.006 32.7292 513.101 32.218 513.203 31.7023C514.589 24.7136 517.289 16.913 519.295 17.4657C523.412 18.6007 525.394 21.5456 522.885 22.9704C520.878 24.1103 519.639 26.318 519.271 27.2794L520.412 35.834Z" fill="black" fill-opacity="0.3"/>
</g>
<mask id="mask1_273_28" style="mask-type:alpha" maskUnits="userSpaceOnUse" x="500" y="13" width="26" height="25">
<path d="M520.636 14.2426C516.481 9.2447 505.471 22.37 500.485 29.5574C502.923 33.5326 505.78 35.5899 508.581 36.4722C512.985 37.8592 517.252 36.3426 519.536 34.8087C518.218 30.9879 518.729 23.102 519.149 19.6367C521.507 18.6073 522.604 21.2888 522.858 22.7582C519.312 24.8681 523.104 28.136 525.011 25.698C526.918 23.2599 525.829 20.4901 520.636 14.2426Z" fill="#9167E3"/>
</mask>
<g mask="url(#mask1_273_28)">
<path d="M501.391 31.2402L499.45 29.8304L508.975 12.1662L521.883 11.7167C522.479 13.9223 523.108 17.7548 520.856 15.441C518.041 12.5486 515.885 13.5686 508.619 21.2957C503.878 26.3382 502.374 29.2442 501.391 31.2402Z" fill="#FBF9FF"/>
<path fill-rule="evenodd" clip-rule="evenodd" d="M510.957 17.584C507.107 21.1565 503.145 26.2532 500.657 29.8379L500.152 29.4872C502.651 25.8864 506.642 20.7489 510.538 17.1331C512.483 15.3287 514.428 13.88 516.169 13.2038C517.043 12.8648 517.885 12.7119 518.661 12.8229C519.445 12.9352 520.138 13.3145 520.705 13.9958C523.304 17.1191 524.907 19.4081 525.611 21.2386C525.965 22.1601 526.099 22.9818 526.006 23.7451C525.913 24.5111 525.596 25.1926 525.092 25.8371C524.559 26.5177 523.877 26.8166 523.211 26.8206C522.554 26.8245 521.932 26.5416 521.504 26.0953C521.074 25.6465 520.829 25.0176 520.965 24.339C521.091 23.7084 521.535 23.0894 522.352 22.5582C522.207 21.8758 521.894 21.0128 521.391 20.4061C521.117 20.0757 520.799 19.8354 520.435 19.7277C520.112 19.6324 519.728 19.6333 519.266 19.8028C519.062 21.5384 518.833 24.2573 518.806 27.0157C518.777 29.8831 518.968 32.7503 519.609 34.6063L519.028 34.8071C518.349 32.8424 518.162 29.8815 518.191 27.0097C518.219 24.1265 518.466 21.2898 518.677 19.5486L518.698 19.374L518.859 19.3037C519.505 19.022 520.091 18.9847 520.609 19.1378C521.122 19.2896 521.537 19.6186 521.865 20.0136C522.513 20.7961 522.865 21.8923 522.997 22.6552L523.033 22.8638L522.851 22.972C522.013 23.4706 521.659 24.0067 521.568 24.4599C521.477 24.9111 521.635 25.3424 521.948 25.6696C522.264 25.9993 522.727 26.2084 523.207 26.2055C523.679 26.2027 524.186 25.9961 524.607 25.458C525.057 24.8839 525.319 24.3052 525.395 23.6711C525.473 23.0343 525.366 22.316 525.037 21.4594C524.373 19.7337 522.832 17.5138 520.232 14.3892C519.76 13.8208 519.202 13.5218 518.574 13.4319C517.937 13.3407 517.205 13.4616 516.392 13.7772C514.761 14.4104 512.885 15.7944 510.957 17.584Z" fill="#060934"/>
<path d="M518.815 31.4858C509.89 35.7208 504.729 29.8759 502.628 26.7758L500.511 29.5401C505.256 37.791 515.225 37.8111 519.312 34.5983L518.815 31.4858Z" fill="url(#paint0_linear_273_28)"/>
<path fill-rule="evenodd" clip-rule="evenodd" d="M502.315 27.3367C502.437 27.1593 502.7 27.1488 502.832 27.3231L503.433 28.1137L504.254 29.0071C504.32 29.0786 504.315 29.1897 504.244 29.2554C504.172 29.3211 504.061 29.3164 503.996 29.245L503.163 28.3394L502.58 27.5722C502.414 27.8137 502.111 28.2375 501.761 28.6611C501.592 28.865 501.366 29.1143 501.183 29.311C501.092 29.4097 501.011 29.4958 500.952 29.5572C500.923 29.5879 500.9 29.6125 500.884 29.6294C500.875 29.6379 500.869 29.6445 500.865 29.6489L500.858 29.6557C500.858 29.6557 500.858 29.6558 500.732 29.534L500.605 29.4122L500.611 29.4057C500.615 29.4014 500.621 29.395 500.629 29.3867C500.645 29.3701 500.668 29.3458 500.697 29.3154C500.755 29.2547 500.835 29.1695 500.926 29.072C501.107 28.8762 501.328 28.6329 501.49 28.437C501.85 28.0024 502.159 27.5658 502.315 27.3367ZM500.732 29.534L500.605 29.4122C500.538 29.4821 500.54 29.5934 500.61 29.6606C500.68 29.7279 500.791 29.7257 500.858 29.6558L500.732 29.534Z" fill="white"/>
<path fill-rule="evenodd" clip-rule="evenodd" d="M502.645 26.2508L502.884 26.6038C503.927 28.1419 505.671 30.3415 508.235 31.64C510.78 32.9293 514.168 33.3483 518.556 31.2682L518.909 31.1005L519.656 34.7081L519.506 34.8257C517.376 36.4992 513.769 37.311 510.108 36.67C506.433 36.0266 502.671 33.9147 500.244 29.6966L500.142 29.5189L502.645 26.2508ZM502.617 27.299L500.88 29.5663C503.209 33.4911 506.749 35.4575 510.214 36.0641C513.656 36.6667 516.991 35.9232 518.976 34.4566L518.465 31.9878C514.081 33.9596 510.609 33.5319 507.957 32.1888C505.448 30.9178 503.704 28.8425 502.617 27.299Z" fill="#060934"/>
<path fill-rule="evenodd" clip-rule="evenodd" d="M509.347 31.3495C508.088 31.0023 506.785 31.742 506.438 33.0017L506.177 33.9489C505.83 35.2085 506.569 36.5111 507.829 36.8583L509.006 37.1827C510.265 37.5299 511.568 36.7902 511.915 35.5306L512.176 34.5834C512.524 33.3237 511.784 32.0211 510.524 31.6739L509.347 31.3495ZM509.265 32.7495C508.61 32.5689 507.933 32.9536 507.752 33.6086L507.617 34.1011C507.436 34.7562 507.821 35.4335 508.476 35.6141L509.088 35.7827C509.743 35.9633 510.42 35.5786 510.601 34.9236L510.736 34.4311C510.917 33.7761 510.532 33.0987 509.877 32.9182L509.265 32.7495Z" fill="#EEC1A0"/>
<path fill-rule="evenodd" clip-rule="evenodd" d="M509.184 31.9425C508.252 31.6856 507.288 32.233 507.031 33.1651L506.77 34.1123C506.513 35.0445 507.06 36.0084 507.992 36.2653L509.169 36.5897C510.101 36.8466 511.065 36.2992 511.322 35.3671L511.583 34.4199C511.84 33.4878 511.293 32.5238 510.361 32.2669L509.184 31.9425ZM507.159 33.4451C507.43 32.4626 508.446 31.8857 509.429 32.1565L510.041 32.3251C511.023 32.596 511.6 33.612 511.329 34.5945L511.194 35.0871C510.923 36.0696 509.907 36.6466 508.924 36.3757L508.312 36.2071C507.33 35.9363 506.753 34.9202 507.024 33.9377L507.159 33.4451ZM506.438 33.0017C506.785 31.742 508.088 31.0023 509.347 31.3495L510.524 31.6739C511.784 32.0211 512.524 33.3237 512.176 34.5834L511.915 35.5306C511.568 36.7902 510.265 37.5299 509.006 37.1827L507.829 36.8583C506.569 36.5111 505.83 35.2085 506.177 33.9489L506.438 33.0017ZM507.752 33.6086C507.933 32.9536 508.61 32.5689 509.265 32.7495L509.877 32.9182C510.532 33.0987 510.917 33.7761 510.736 34.4311L510.601 34.9236C510.42 35.5786 509.743 35.9633 509.088 35.7827L508.476 35.6141C507.821 35.4335 507.436 34.7562 507.617 34.1011L507.752 33.6086Z" fill="#060934"/>
</g>
<defs>
<linearGradient id="paint0_linear_273_28" x1="517.754" y1="34.7168" x2="500.764" y2="28.6641" gradientUnits="userSpaceOnUse">
<stop offset="0.343975" stop-color="#EF755E"/>
<stop offset="1" stop-color="#FFA594"/>
</linearGradient>
</defs>
</svg>
